<?xml version="1.0"?>
<svg xmlns="http://www.w3.org/2000/svg" xmlns:xlink="http://www.w3.org/1999/xlink" xmlns:svgjs="http://svgjs.com/svgjs" version="1.1" width="512" height="512" x="0" y="0" viewBox="0 0 511.976 511.976" style="enable-background:new 0 0 512 512" xml:space="preserve" class=""><g><g xmlns="http://www.w3.org/2000/svg"><path d="m255.988 336.603c-47.248 0-90.951 21.461-119.904 58.88l23.727 18.358c23.229-30.021 58.284-47.239 96.178-47.239s72.948 17.218 96.177 47.239l23.727-18.358c-28.955-37.419-72.658-58.88-119.905-58.88z" fill="#326aa2" data-original="#000000" style="" class=""/><path d="m436.999 74.977c-48.35-48.35-112.634-74.977-181.011-74.977s-132.661 26.627-181.011 74.977-74.977 112.634-74.977 181.011 26.627 132.661 74.977 181.011c48.351 48.35 112.635 74.977 181.012 74.977s132.661-26.627 181.011-74.977 74.977-112.634 74.977-181.011-26.628-132.661-74.978-181.011zm-21.214 340.808c-42.683 42.684-99.434 66.19-159.797 66.19-60.364 0-117.114-23.507-159.798-66.19-42.683-42.683-66.19-99.433-66.19-159.797 0-60.363 23.507-117.114 66.19-159.797s99.434-66.191 159.798-66.191c60.363 0 117.114 23.507 159.797 66.19 42.684 42.684 66.19 99.434 66.19 159.797.001 60.365-23.506 117.115-66.19 159.798z" fill="#326aa2" data-original="#000000" style="" class=""/><path d="m160.981 244.157c16.267 0 29.5-13.233 29.5-29.5s-13.233-29.5-29.5-29.5-29.5 13.233-29.5 29.5 13.234 29.5 29.5 29.5z" fill="#326aa2" data-original="#000000" style="" class=""/><path d="m350.994 185.157c-16.267 0-29.5 13.233-29.5 29.5s13.233 29.5 29.5 29.5 29.5-13.233 29.5-29.5-13.233-29.5-29.5-29.5z" fill="#326aa2" data-original="#000000" style="" class=""/></g></g></svg>
